<svg version="1.1" id="Layer_1" xmlns="http://www.w3.org/2000/svg" xmlns:xlink="http://www.w3.org/1999/xlink" x="0px" y="0px"
	 width="100%" viewBox="0 0 896 896" enable-background="new 0 0 896 896" xml:space="preserve">
<path fill="#585858" opacity="1.000000" stroke="none" 
	d="
M522.000000,897.000000 
	C348.000000,897.000000 174.500000,897.000000 1.000000,897.000000 
	C1.000000,598.333313 1.000000,299.666656 1.000000,1.000000 
	C299.666656,1.000000 598.333313,1.000000 897.000000,1.000000 
	C897.000000,299.666656 897.000000,598.333313 897.000000,897.000000 
	C772.166687,897.000000 647.333313,897.000000 522.000000,897.000000 
M232.547668,634.341736 
	C231.059799,637.910095 228.655579,641.381409 228.265213,645.066040 
	C227.303436,654.143982 227.461166,663.333801 226.807968,672.452820 
	C226.023743,683.401184 231.557785,691.555054 238.337418,699.034424 
	C240.705780,701.647278 243.959961,703.978027 247.265091,705.123657 
	C257.447845,708.653564 268.031342,709.589355 278.815582,708.656616 
	C308.984833,706.047363 339.128998,702.917542 369.352081,701.228210 
	C397.560425,699.651672 425.854309,699.361816 454.116333,699.073547 
	C473.732422,698.873352 493.372070,699.288330 512.976135,700.062683 
	C533.918030,700.889771 554.843628,702.280701 575.750366,703.786072 
	C586.023010,704.525757 596.214600,706.361450 606.484375,707.181152 
	C615.435425,707.895630 624.578186,707.039185 633.388550,708.437683 
	C641.268433,709.688538 648.318970,709.095032 654.950256,705.005310 
	C663.779663,699.559937 671.925171,692.997925 673.182983,681.953857 
	C674.357483,671.640625 674.312927,661.163086 674.351685,650.756165 
	C674.372681,645.121155 673.439880,639.483215 672.949524,633.845520 
	C671.968567,622.566895 671.191223,611.264099 669.846741,600.029175 
	C669.593384,597.912598 667.094116,596.064819 665.495483,593.222412 
	C665.583374,580.170410 665.671265,567.118408 666.375305,553.978149 
	C667.732239,555.142700 669.960632,556.105591 670.285522,557.509033 
	C671.330933,562.024902 672.439941,566.754517 672.135315,571.308838 
	C671.406921,582.195740 673.684753,592.500732 676.543335,602.817261 
	C677.242920,605.341919 677.664551,608.032715 677.662109,610.646606 
	C677.653687,619.822266 677.883301,628.901123 681.099670,637.697815 
	C682.563904,641.702393 684.164917,641.524414 686.570923,638.713867 
	C690.742371,633.840881 694.692566,628.753479 699.154053,624.162598 
	C702.252930,620.973877 706.820190,619.212524 708.068726,614.265198 
	C708.243347,613.573303 709.769836,613.304749 710.505554,612.653809 
	C711.731201,611.569458 713.499084,610.510620 713.858582,609.133057 
	C715.725098,601.981689 720.427979,596.882446 725.710754,592.273193 
	C727.391296,590.807007 729.961182,589.463257 732.057129,589.557190 
	C736.388611,589.751221 739.287598,589.145264 739.598267,584.073425 
	C739.670898,582.887390 740.669739,581.718689 741.361816,580.616882 
	C744.517334,575.592896 747.937073,570.719299 750.821045,565.545837 
	C752.787415,562.018433 751.251770,559.314087 747.374390,559.074036 
	C743.633728,558.842407 744.279480,556.884521 745.227295,554.684509 
	C748.967773,546.002747 751.763794,536.685425 756.898682,528.918518 
	C759.989746,524.242981 760.148071,520.166931 761.023010,515.265808 
	C762.770020,505.479736 763.994873,495.490387 768.992310,486.297211 
	C773.747253,477.550171 775.539978,475.457306 781.317749,477.932343 
	C784.059448,470.328888 786.812744,462.721039 789.531677,455.100922 
	C789.750977,454.486298 789.766541,453.790283 789.822632,453.127472 
	C790.324158,447.199066 788.620911,445.646881 783.099487,447.505615 
	C778.893982,448.921326 776.596252,447.526276 775.881042,443.400055 
	C775.487671,441.130981 775.449707,438.777405 775.468933,436.463715 
	C775.552856,426.327484 775.842224,416.191589 775.815369,406.056213 
	C775.788513,395.921234 775.437805,385.787415 775.336914,375.651978 
	C775.325623,374.516327 776.016541,373.373688 776.381775,372.234283 
	C776.822083,372.185944 777.262329,372.137573 777.702576,372.089233 
	C778.397278,373.588623 779.476807,375.027924 779.722046,376.597534 
	C780.978882,384.641113 781.938721,392.731201 783.201050,400.773804 
	C783.482788,402.569031 784.563477,404.238831 785.276367,405.966400 
	C785.853699,405.834442 786.430969,405.702515 787.008301,405.570587 
	C787.331116,403.694916 787.870422,401.826477 787.933105,399.942169 
	C788.077087,395.614136 788.299805,391.251038 787.921997,386.952118 
	C787.360413,380.562134 786.671204,374.137848 785.337524,367.876953 
	C784.430481,363.618805 781.509033,359.728546 780.920776,355.475647 
	C779.442078,344.786530 781.006470,333.584045 774.897095,323.740234 
	C774.362244,322.878479 774.958435,321.388306 774.630310,320.311584 
	C773.388672,316.237305 771.982544,312.213165 770.638000,308.170258 
	C770.108948,308.291168 769.579956,308.412048 769.050964,308.532959 
	C768.698730,309.574432 768.185974,310.591919 768.025940,311.662170 
	C767.624878,314.343933 766.703796,317.257385 763.633301,316.374207 
	C761.597473,315.788605 759.002991,313.132507 758.812378,311.191864 
	C758.589722,308.923981 760.089355,305.597321 761.947205,304.206207 
	C765.459412,301.576324 765.976135,298.958984 764.536194,295.174530 
	C763.867676,293.417633 763.879028,291.402039 763.582153,289.503693 
	C765.539551,289.830170 766.153564,290.651154 766.972351,291.091675 
	C768.711304,292.027313 771.317871,293.929108 772.205200,293.349060 
	C774.252991,292.010254 776.268250,289.602783 776.786560,287.290375 
	C777.150208,285.667480 775.456482,282.940735 773.893005,281.702484 
	C772.200500,280.361969 769.498596,279.385162 767.400574,279.633240 
	C760.295532,280.473480 757.057495,276.349579 754.630310,270.788361 
	C753.764221,268.803986 753.040222,266.754395 752.109802,264.802032 
	C750.824097,262.104034 748.967346,261.129333 746.058716,262.781677 
	C744.688354,263.560181 743.015625,263.806274 742.496460,263.971039 
	C741.991760,257.259766 742.838684,250.636856 740.744446,245.133057 
	C738.035339,238.013489 733.153931,231.669983 728.849304,225.232117 
	C727.047424,222.537277 724.126953,220.618423 722.059204,218.067795 
	C716.854187,211.647049 712.193481,204.753113 706.669250,198.631104 
	C699.705139,190.913101 692.047546,183.824448 684.794373,176.361954 
	C681.325684,172.793121 679.350586,173.108643 676.561218,177.520920 
	C675.946960,178.492401 673.288879,179.422424 672.644104,178.939667 
	C659.246948,168.908722 645.956665,158.731934 632.789124,148.400681 
	C631.046509,147.033401 630.084534,144.671158 628.760986,142.769699 
	C629.065247,142.384506 629.369507,141.999313 629.673706,141.614120 
	C632.750488,142.043991 635.827209,142.473862 640.085388,143.068802 
	C637.710388,137.902283 635.123718,134.821518 630.930481,133.087112 
	C629.432983,132.467697 627.519226,131.882324 626.740356,130.672913 
	C623.977600,126.382812 620.386780,123.597931 615.221497,124.219070 
	C610.827393,124.747475 606.536133,126.112206 602.187744,127.053223 
	C601.014465,127.307129 599.798828,127.365700 598.602661,127.513924 
	C598.599976,126.291397 598.198730,124.887604 598.658936,123.875549 
	C601.793884,116.981033 601.834351,117.032005 595.953796,112.669601 
	C594.218140,111.381973 592.758789,109.665314 590.909485,108.604370 
	C589.289124,107.674789 587.179871,106.684448 585.498718,106.969933 
	C582.309143,107.511566 580.218323,107.574860 578.879333,103.888802 
	C578.475342,102.776657 575.478760,102.539230 573.633850,102.031761 
	C570.009766,101.034897 566.081726,100.692978 562.783875,99.060822 
	C557.159241,96.277153 554.477905,96.289436 550.085327,100.762070 
	C549.718811,100.450279 549.258606,100.196625 548.990051,99.809853 
	C544.325195,93.091751 544.184937,93.468719 537.401550,97.764572 
	C534.622375,99.524559 530.156189,99.748711 526.737854,99.127861 
	C520.336426,97.965202 514.131042,95.705063 507.866974,93.825104 
	C506.993927,93.563103 505.787811,93.044624 505.521545,92.345612 
	C503.594971,87.287788 498.688507,85.402840 494.685547,83.378616 
	C484.423615,78.189362 472.919342,79.541023 461.870758,79.356979 
	C459.015778,79.309425 454.579926,81.789696 453.519012,84.250656 
	C450.674622,90.848785 445.759705,91.698166 439.783051,91.698868 
	C434.035400,91.699539 428.225677,91.524673 422.560150,92.291115 
	C418.193420,92.881866 415.010559,92.574219 413.206726,88.114220 
	C412.099854,85.377480 410.343170,84.599220 407.243835,85.449165 
	C404.664703,86.156456 401.759888,85.704773 398.999176,85.713242 
	C396.368408,85.721306 393.697083,85.356369 391.115692,85.698906 
	C386.885345,86.260223 382.741272,87.478699 378.509796,88.023277 
	C373.038605,88.727386 372.186401,90.231567 375.068573,94.851501 
	C375.549255,95.622002 375.716858,96.587837 376.029114,97.463402 
	C375.759491,97.866035 375.489868,98.268661 375.220245,98.671295 
	C373.525085,97.863373 371.897522,96.609192 370.120758,96.340004 
	C366.369781,95.771690 362.372253,94.928848 358.794617,95.692276 
	C355.665070,96.360069 354.182617,99.476631 354.617401,103.283203 
	C354.753510,104.474983 352.826080,106.663055 351.415771,107.145424 
	C343.275055,109.929764 333.895050,110.620926 330.809174,120.998520 
	C330.539398,121.905655 328.984650,122.367935 328.201202,123.200920 
	C327.219116,124.245110 326.392975,125.441124 325.543762,126.603928 
	C324.450775,128.100494 323.540253,130.698242 322.296844,130.859406 
	C320.904083,131.039886 319.284760,128.926285 317.659393,127.993202 
	C315.540771,126.776947 313.336975,124.896164 311.137238,124.849899 
	C308.663330,124.797859 306.085693,126.328743 303.694336,127.467468 
	C302.826172,127.880882 302.068512,129.060715 301.774567,130.044479 
	C300.926453,132.882767 300.340118,135.799301 299.494354,139.341110 
	C300.219360,139.425751 302.127533,139.449295 303.908020,139.938065 
	C304.837402,140.193207 305.542053,141.267075 306.348175,141.971176 
	C305.502960,142.796509 304.712646,144.248734 303.802155,144.328415 
	C301.179993,144.557861 298.474304,143.922623 295.867920,144.216599 
	C293.429688,144.491623 290.349609,144.813126 288.837372,146.365936 
	C285.698517,149.588989 283.084900,150.035599 279.224030,147.762024 
	C274.691162,145.092743 268.804199,146.459167 264.886871,149.575241 
	C256.905975,155.923798 248.667236,161.949280 240.503479,168.066177 
	C238.215698,169.780350 235.936432,169.917999 233.823608,167.637283 
	C231.970322,165.636719 229.526627,163.066391 227.171753,165.741379 
	C224.691391,168.558899 219.010803,170.137604 221.835999,176.135880 
	C222.437210,177.412308 221.464233,180.615585 220.257126,181.346283 
	C215.814880,184.035416 210.869781,185.882599 206.341415,188.448196 
	C205.122162,189.138962 204.060913,191.241119 204.038788,192.712112 
	C203.952866,198.428680 204.358276,204.097626 197.776794,207.009964 
	C196.529007,207.562088 195.570740,209.044312 194.774536,210.286835 
	C192.781647,213.396942 190.970932,214.075577 188.201523,210.902496 
	C187.386505,209.968674 184.162933,209.584656 183.541412,210.282669 
	C179.039291,215.339020 174.659088,220.551834 170.750244,226.075958 
	C166.246780,232.440369 162.312729,239.205185 158.046432,245.740662 
	C154.064606,251.840332 154.223160,255.365051 158.353088,261.614136 
	C159.123932,262.780518 158.545868,264.838379 158.590302,266.484833 
	C157.248077,265.812866 155.927444,265.092529 154.557968,264.481659 
	C152.977554,263.776733 150.747238,262.176849 149.869247,262.714172 
	C147.705765,264.038208 145.276489,266.063477 144.501740,268.334747 
	C139.889084,281.857056 131.396820,294.153595 131.396301,309.182770 
	C131.396255,310.455261 130.259949,312.040039 129.197021,312.947327 
	C123.964470,317.413757 121.601196,323.523254 120.101112,329.800842 
	C118.761436,335.407196 115.950966,338.432465 110.331635,339.558960 
	C104.486809,340.730652 101.279327,344.486084 100.517921,350.623688 
	C99.501671,358.815582 97.977585,366.943604 96.732841,375.108337 
	C95.887932,380.650452 97.131126,383.186371 102.331161,384.544464 
	C106.850304,385.724762 107.798233,388.532257 108.042305,392.607422 
	C108.508675,400.394226 108.681351,408.300842 110.262123,415.889801 
	C111.835815,423.444824 114.547516,430.653168 109.491974,437.840088 
	C109.240997,438.196869 109.295692,438.817230 109.317619,439.309998 
	C109.598724,445.626526 109.509033,451.993988 110.336258,458.239532 
	C110.868111,462.255005 113.199791,466.007141 113.957779,470.022095 
	C116.930527,485.768402 118.077278,501.763245 124.866501,516.819824 
	C129.984100,528.169189 132.858109,540.525513 138.824280,551.634399 
	C143.522354,560.382080 147.754349,569.385376 152.612640,578.039795 
	C155.401978,583.008606 159.218674,587.389771 162.225739,592.250244 
	C165.770081,597.979248 168.327347,604.409729 172.391785,609.708252 
	C182.400818,622.756348 192.912582,635.427185 203.490311,648.024597 
	C206.005981,651.020630 209.464645,653.288757 212.715530,655.569702 
	C213.888641,656.392822 216.192261,656.993042 217.131317,656.384766 
	C218.142487,655.729858 218.210907,653.551392 218.595856,652.013855 
	C219.174896,649.701050 219.543274,647.328979 220.227310,645.050049 
	C222.221344,638.406860 225.043228,631.920349 226.208374,625.143372 
	C227.659988,616.700317 227.495331,607.989197 228.664673,599.481323 
	C228.983292,597.163269 231.588287,595.159485 233.316467,593.933960 
	C233.272568,607.301697 233.228668,620.669495 232.547668,634.341736 
M775.706726,504.263306 
	C772.558350,501.401978 769.772278,502.221375 767.113464,505.043884 
	C762.683167,509.746887 764.570007,519.746460 770.879089,523.945923 
	C772.581665,517.541748 774.268799,511.195679 775.706726,504.263306 
z"/>
<path fill="#5C5D5D" opacity="1.000000" stroke="none" 
	d="
M233.143967,593.011475 
	C231.588287,595.159485 228.983292,597.163269 228.664673,599.481323 
	C227.495331,607.989197 227.659988,616.700317 226.208374,625.143372 
	C225.043228,631.920349 222.221344,638.406860 220.227310,645.050049 
	C219.543274,647.328979 219.174896,649.701050 218.595856,652.013855 
	C218.210907,653.551392 218.142487,655.729858 217.131317,656.384766 
	C216.192261,656.993042 213.888641,656.392822 212.715530,655.569702 
	C209.464645,653.288757 206.005981,651.020630 203.490311,648.024597 
	C192.912582,635.427185 182.400818,622.756348 172.391785,609.708252 
	C168.327347,604.409729 165.770081,597.979248 162.225739,592.250244 
	C159.218674,587.389771 155.401978,583.008606 152.612640,578.039795 
	C147.754349,569.385376 143.522354,560.382080 138.824280,551.634399 
	C132.858109,540.525513 129.984100,528.169189 124.866501,516.819824 
	C118.077278,501.763245 116.930527,485.768402 113.957779,470.022095 
	C113.199791,466.007141 110.868111,462.255005 110.336258,458.239532 
	C109.509033,451.993988 109.598724,445.626526 109.317619,439.309998 
	C109.295692,438.817230 109.240997,438.196869 109.491974,437.840088 
	C114.547516,430.653168 111.835815,423.444824 110.262123,415.889801 
	C108.681351,408.300842 108.508675,400.394226 108.042305,392.607422 
	C107.798233,388.532257 106.850304,385.724762 102.331161,384.544464 
	C97.131126,383.186371 95.887932,380.650452 96.732841,375.108337 
	C97.977585,366.943604 99.501671,358.815582 100.517921,350.623688 
	C101.279327,344.486084 104.486809,340.730652 110.331635,339.558960 
	C115.950966,338.432465 118.761436,335.407196 120.101112,329.800842 
	C121.601196,323.523254 123.964470,317.413757 129.197021,312.947327 
	C130.259949,312.040039 131.396255,310.455261 131.396301,309.182770 
	C131.396820,294.153595 139.889084,281.857056 144.501740,268.334747 
	C145.276489,266.063477 147.705765,264.038208 149.869247,262.714172 
	C150.747238,262.176849 152.977554,263.776733 154.557968,264.481659 
	C155.927444,265.092529 157.248077,265.812866 158.590302,266.484833 
	C158.545868,264.838379 159.123932,262.780518 158.353088,261.614136 
	C154.223160,255.365051 154.064606,251.840332 158.046432,245.740662 
	C162.312729,239.205185 166.246780,232.440369 170.750244,226.075958 
	C174.659088,220.551834 179.039291,215.339020 183.541412,210.282669 
	C184.162933,209.584656 187.386505,209.968674 188.201523,210.902496 
	C190.970932,214.075577 192.781647,213.396942 194.774536,210.286835 
	C195.570740,209.044312 196.529007,207.562088 197.776794,207.009964 
	C204.358276,204.097626 203.952866,198.428680 204.038788,192.712112 
	C204.060913,191.241119 205.122162,189.138962 206.341415,188.448196 
	C210.869781,185.882599 215.814880,184.035416 220.257126,181.346283 
	C221.464233,180.615585 222.437210,177.412308 221.835999,176.135880 
	C219.010803,170.137604 224.691391,168.558899 227.171753,165.741379 
	C229.526627,163.066391 231.970322,165.636719 233.823608,167.637283 
	C235.936432,169.917999 238.215698,169.780350 240.503479,168.066177 
	C248.667236,161.949280 256.905975,155.923798 264.886871,149.575241 
	C268.804199,146.459167 274.691162,145.092743 279.224030,147.762024 
	C283.084900,150.035599 285.698517,149.588989 288.837372,146.365936 
	C290.349609,144.813126 293.429688,144.491623 295.867920,144.216599 
	C298.474304,143.922623 301.179993,144.557861 303.802155,144.328415 
	C304.712646,144.248734 305.502960,142.796509 306.348175,141.971176 
	C305.542053,141.267075 304.837402,140.193207 303.908020,139.938065 
	C302.127533,139.449295 300.219360,139.425751 299.494354,139.341110 
	C300.340118,135.799301 300.926453,132.882767 301.774567,130.044479 
	C302.068512,129.060715 302.826172,127.880882 303.694336,127.467468 
	C306.085693,126.328743 308.663330,124.797859 311.137238,124.849899 
	C313.336975,124.896164 315.540771,126.776947 317.659393,127.993202 
	C319.284760,128.926285 320.904083,131.039886 322.296844,130.859406 
	C323.540253,130.698242 324.450775,128.100494 325.543762,126.603928 
	C326.392975,125.441124 327.219116,124.245110 328.201202,123.200920 
	C328.984650,122.367935 330.539398,121.905655 330.809174,120.998520 
	C333.895050,110.620926 343.275055,109.929764 351.415771,107.145424 
	C352.826080,106.663055 354.753510,104.474983 354.617401,103.283203 
	C354.182617,99.476631 355.665070,96.360069 358.794617,95.692276 
	C362.372253,94.928848 366.369781,95.771690 370.120758,96.340004 
	C371.897522,96.609192 373.525085,97.863373 375.220245,98.671295 
	C375.489868,98.268661 375.759491,97.866035 376.029114,97.463402 
	C375.716858,96.587837 375.549255,95.622002 375.068573,94.851501 
	C372.186401,90.231567 373.038605,88.727386 378.509796,88.023277 
	C382.741272,87.478699 386.885345,86.260223 391.115692,85.698906 
	C393.697083,85.356369 396.368408,85.721306 398.999176,85.713242 
	C401.759888,85.704773 404.664703,86.156456 407.243835,85.449165 
	C410.343170,84.599220 412.099854,85.377480 413.206726,88.114220 
	C415.010559,92.574219 418.193420,92.881866 422.560150,92.291115 
	C428.225677,91.524673 434.035400,91.699539 439.783051,91.698868 
	C445.759705,91.698166 450.674622,90.848785 453.519012,84.250656 
	C454.579926,81.789696 459.015778,79.309425 461.870758,79.356979 
	C472.919342,79.541023 484.423615,78.189362 494.685547,83.378616 
	C498.688507,85.402840 503.594971,87.287788 505.521545,92.345612 
	C505.787811,93.044624 506.993927,93.563103 507.866974,93.825104 
	C514.131042,95.705063 520.336426,97.965202 526.737854,99.127861 
	C530.156189,99.748711 534.622375,99.524559 537.401550,97.764572 
	C544.184937,93.468719 544.325195,93.091751 548.990051,99.809853 
	C549.258606,100.196625 549.718811,100.450279 550.085327,100.762070 
	C554.477905,96.289436 557.159241,96.277153 562.783875,99.060822 
	C566.081726,100.692978 570.009766,101.034897 573.633850,102.031761 
	C575.478760,102.539230 578.475342,102.776657 578.879333,103.888802 
	C580.218323,107.574860 582.309143,107.511566 585.498718,106.969933 
	C587.179871,106.684448 589.289124,107.674789 590.909485,108.604370 
	C592.758789,109.665314 594.218140,111.381973 595.953796,112.669601 
	C601.834351,117.032005 601.793884,116.981033 598.658936,123.875549 
	C598.198730,124.887604 598.599976,126.291397 598.602661,127.513931 
	C599.798828,127.365700 601.014465,127.307129 602.187744,127.053223 
	C606.536133,126.112206 610.827393,124.747475 615.221497,124.219070 
	C620.386780,123.597931 623.977600,126.382812 626.740356,130.672913 
	C627.519226,131.882324 629.432983,132.467697 630.930481,133.087112 
	C635.123718,134.821518 637.710388,137.902283 640.085388,143.068802 
	C635.827209,142.473862 632.750488,142.043991 629.673706,141.614120 
	C629.369507,141.999313 629.065247,142.384506 628.760986,142.769699 
	C630.084534,144.671158 631.046509,147.033401 632.789124,148.400681 
	C645.956665,158.731934 659.246948,168.908722 672.644104,178.939667 
	C673.288879,179.422424 675.946960,178.492401 676.561218,177.520920 
	C679.350586,173.108643 681.325684,172.793121 684.794373,176.361954 
	C692.047546,183.824448 699.705139,190.913101 706.669250,198.631104 
	C712.193481,204.753113 716.854187,211.647049 722.059204,218.067795 
	C724.126953,220.618423 727.047424,222.537277 728.849304,225.232117 
	C733.153931,231.669983 738.035339,238.013489 740.744446,245.133057 
	C742.838684,250.636856 741.991760,257.259766 742.496460,263.971039 
	C743.015625,263.806274 744.688354,263.560181 746.058716,262.781677 
	C748.967346,261.129333 750.824097,262.104034 752.109802,264.802032 
	C753.040222,266.754395 753.764221,268.803986 754.630310,270.788361 
	C757.057495,276.349579 760.295532,280.473480 767.400574,279.633240 
	C769.498596,279.385162 772.200500,280.361969 773.893005,281.702484 
	C775.456482,282.940735 777.150208,285.667480 776.786560,287.290375 
	C776.268250,289.602783 774.252991,292.010254 772.205200,293.349060 
	C771.317871,293.929108 768.711304,292.027313 766.972351,291.091675 
	C766.153564,290.651154 765.539551,289.830170 763.582153,289.503693 
	C763.879028,291.402039 763.867676,293.417633 764.536194,295.174530 
	C765.976135,298.958984 765.459412,301.576324 761.947205,304.206207 
	C760.089355,305.597321 758.589722,308.923981 758.812378,311.191864 
	C759.002991,313.132507 761.597473,315.788605 763.633301,316.374207 
	C766.703796,317.257385 767.624878,314.343933 768.025940,311.662170 
	C768.185974,310.591919 768.698730,309.574432 769.050964,308.532959 
	C769.579956,308.412048 770.108948,308.291168 770.638000,308.170258 
	C771.982544,312.213165 773.388672,316.237305 774.630310,320.311584 
	C774.958435,321.388306 774.362244,322.878479 774.897095,323.740234 
	C781.006470,333.584045 779.442078,344.786530 780.920776,355.475647 
	C781.509033,359.728546 784.430481,363.618805 785.337524,367.876953 
	C786.671204,374.137848 787.360413,380.562134 787.921997,386.952118 
	C788.299805,391.251038 788.077087,395.614136 787.933105,399.942169 
	C787.870422,401.826477 787.331116,403.694916 787.008301,405.570587 
	C786.430969,405.702515 785.853699,405.834442 785.276367,405.966400 
	C784.563477,404.238831 783.482788,402.569031 783.201050,400.773804 
	C781.938721,392.731201 780.978882,384.641113 779.722046,376.597534 
	C779.476807,375.027924 778.397278,373.588623 777.702576,372.089233 
	C777.262329,372.137573 776.822083,372.185944 776.381775,372.234283 
	C776.016541,373.373688 775.325623,374.516327 775.336914,375.651978 
	C775.437805,385.787415 775.788513,395.921234 775.815369,406.056213 
	C775.842224,416.191589 775.552856,426.327484 775.468933,436.463715 
	C775.449707,438.777405 775.487671,441.130981 775.881042,443.400055 
	C776.596252,447.526276 778.893982,448.921326 783.099487,447.505615 
	C788.620911,445.646881 790.324158,447.199066 789.822632,453.127472 
	C789.766541,453.790283 789.750977,454.486298 789.531677,455.100922 
	C786.812744,462.721039 784.059448,470.328888 781.317749,477.932343 
	C775.539978,475.457306 773.747253,477.550171 768.992310,486.297211 
	C763.994873,495.490387 762.770020,505.479736 761.023010,515.265808 
	C760.148071,520.166931 759.989746,524.242981 756.898682,528.918518 
	C751.763794,536.685425 748.967773,546.002747 745.227295,554.684509 
	C744.279480,556.884521 743.633728,558.842407 747.374390,559.074036 
	C751.251770,559.314087 752.787415,562.018433 750.821045,565.545837 
	C747.937073,570.719299 744.517334,575.592896 741.361816,580.616882 
	C740.669739,581.718689 739.670898,582.887390 739.598267,584.073425 
	C739.287598,589.145264 736.388611,589.751221 732.057129,589.557190 
	C729.961182,589.463257 727.391296,590.807007 725.710754,592.273193 
	C720.427979,596.882446 715.725098,601.981689 713.858582,609.133057 
	C713.499084,610.510620 711.731201,611.569458 710.505554,612.653809 
	C709.769836,613.304749 708.243347,613.573303 708.068726,614.265198 
	C706.820190,619.212524 702.252930,620.973877 699.154053,624.162598 
	C694.692566,628.753479 690.742371,633.840881 686.570923,638.713867 
	C684.164917,641.524414 682.563904,641.702393 681.099670,637.697815 
	C677.883301,628.901123 677.653687,619.822266 677.662109,610.646606 
	C677.664551,608.032715 677.242920,605.341919 676.543335,602.817261 
	C673.684753,592.500732 671.406921,582.195740 672.135315,571.308838 
	C672.439941,566.754517 671.330933,562.024902 670.285522,557.509033 
	C669.960632,556.105591 667.732239,555.142700 665.982300,553.643311 
	C665.523682,509.183868 665.394104,465.059143 665.423401,420.934540 
	C665.435303,402.956055 665.791870,384.977783 666.341187,366.907257 
	C670.092529,365.906952 670.594727,363.438324 670.697754,360.301361 
	C671.154602,346.393890 670.884094,332.372742 672.648193,318.619934 
	C675.035156,300.010895 673.268494,281.842560 669.953369,263.665497 
	C669.521118,261.294983 667.466553,259.220276 666.080322,256.622162 
	C664.067078,245.295898 658.906067,236.558029 648.573181,230.971985 
	C639.171814,225.554810 629.169861,224.791473 619.133545,224.577179 
	C621.406433,220.460312 619.161072,218.537476 616.153137,216.730957 
	C612.470947,214.519485 608.830017,212.213821 605.343994,209.708496 
	C601.862061,207.206192 598.975220,203.438766 595.154724,201.932907 
	C586.313965,198.448334 580.268494,189.082260 569.511902,189.825531 
	C563.703308,184.910522 556.240051,184.154922 549.487488,181.547302 
	C536.870789,176.675140 525.122498,169.803452 511.197266,168.283981 
	C502.840057,167.372070 494.776398,163.994370 486.430328,162.681717 
	C480.188538,161.700012 475.133820,160.004227 471.186859,154.638901 
	C468.169250,150.536865 460.626556,150.641769 459.364990,154.355499 
	C457.796265,158.973450 454.484741,159.794662 450.443298,159.942398 
	C445.790955,160.112457 441.064972,159.827240 436.501221,160.555710 
	C425.048737,162.383713 413.665436,164.649368 402.265991,166.800903 
	C400.665314,167.103027 398.224518,167.293289 397.711273,168.311157 
	C394.456787,174.765762 389.326996,172.462234 384.266022,171.960083 
	C380.950104,171.631073 376.105621,171.167740 374.412933,173.019669 
	C369.874695,177.984726 364.087769,177.588348 358.617767,179.118515 
	C353.940552,180.426941 349.549377,182.799820 345.087646,184.825119 
	C340.170502,187.057159 335.270233,189.338913 330.474762,191.816193 
	C329.489838,192.324997 328.265442,193.907181 328.403381,194.801559 
	C329.253113,200.311401 325.776031,201.613739 321.573120,202.593628 
	C320.188263,202.916504 318.838928,203.695068 317.655304,204.524826 
	C312.571014,208.089066 307.411804,211.174149 300.840271,211.208878 
	C293.750397,211.246323 288.395599,214.799057 284.167816,220.210175 
	C287.967377,221.860596 291.482758,223.387604 294.532776,224.974487 
	C283.751740,225.374893 273.437958,225.790405 263.120117,226.037476 
	C249.293655,226.368561 233.346130,240.835205 233.738174,254.866638 
	C233.896164,260.521393 233.535843,266.190643 233.202026,272.003174 
	C233.135162,273.483765 233.277710,274.814453 233.462418,276.602661 
	C233.557510,283.556458 233.687012,290.053253 233.650345,296.549103 
	C233.476349,327.365662 233.257050,358.181976 232.731720,388.826477 
	C231.630157,387.096985 230.284531,385.580719 230.167328,383.974762 
	C229.598083,376.174103 229.319656,368.350891 229.009094,360.532867 
	C228.295441,342.567780 227.666016,324.599152 226.870926,306.637756 
	C226.786163,304.722839 225.757492,302.864166 225.296402,300.948151 
	C224.576431,297.956451 223.837387,294.959351 223.339386,291.926270 
	C222.400253,286.206421 222.070190,280.346771 220.650360,274.757721 
	C219.422729,269.925262 216.936340,270.103882 213.084381,273.009125 
	C207.265900,277.397522 204.247025,283.620117 202.192505,289.861511 
	C199.127975,299.171234 191.996796,307.687103 195.367554,318.680115 
	C195.776230,320.012939 194.418732,322.973083 193.140518,323.554932 
	C186.587036,326.538055 185.630371,332.054901 184.840561,338.305298 
	C184.257080,342.922913 182.233780,347.371246 180.737030,351.856659 
	C179.599380,355.265869 177.336288,358.579437 177.208771,361.996582 
	C176.695984,375.737946 176.782837,389.502838 176.722641,403.259369 
	C176.694321,409.730377 176.427231,416.238617 177.002487,422.664246 
	C177.715927,430.633362 176.259476,437.404755 169.792023,442.733734 
	C166.864761,445.145721 166.975357,449.352051 170.355225,451.064514 
	C175.374496,453.607574 174.430954,456.892914 173.384781,461.078857 
	C172.904770,462.999451 174.019897,465.500824 174.893066,467.531860 
	C176.008545,470.126556 178.125443,472.363159 178.893768,475.019318 
	C180.411606,480.266693 180.495193,486.053406 182.670364,490.951630 
	C184.902847,495.978821 184.761917,500.656769 184.836014,505.863892 
	C184.919968,511.764496 186.573486,517.923462 188.844330,523.434509 
	C191.181381,529.106140 195.576813,533.905273 198.162033,539.506042 
	C200.650208,544.896423 202.260315,550.619751 203.557373,556.614746 
	C205.193237,564.175598 211.603058,570.787598 216.320496,577.552917 
	C218.000702,579.962585 220.014740,578.919250 221.253586,576.394104 
	C224.400558,569.979614 226.518387,563.449646 224.273407,556.227173 
	C223.012741,552.171326 223.952560,549.296814 228.641815,548.621765 
	C230.125168,548.408203 231.610901,548.210999 233.174591,548.307983 
	C233.473633,549.405579 233.693588,550.201538 233.855148,551.423462 
	C233.579163,565.570129 233.361557,579.290833 233.143967,593.011475 
M672.208313,421.950165 
	C672.139404,430.602875 672.020874,439.255524 672.015503,447.908264 
	C672.010132,456.538239 672.009033,465.170746 672.203064,473.797668 
	C672.468262,485.586761 672.874451,497.373383 673.321960,509.157166 
	C673.440979,512.291077 674.031921,515.404541 674.231323,518.538513 
	C674.621765,524.674927 674.153015,530.979919 675.447571,536.907715 
	C676.429626,541.404541 679.592712,545.424927 681.593567,549.287231 
	C684.766235,546.231567 688.832703,543.944580 690.312622,540.534851 
	C693.008545,534.323669 696.263062,527.837402 697.747253,521.709961 
	C699.716736,513.579102 703.468933,504.866241 700.726257,495.856750 
	C700.420593,494.852814 700.686523,493.372437 701.247864,492.456543 
	C704.653870,486.898865 704.862976,480.900421 704.159729,474.688690 
	C704.033569,473.574188 704.326111,472.343140 704.687988,471.253113 
	C709.081055,458.022491 711.009338,444.424896 711.138245,430.508667 
	C711.152649,428.952362 712.155823,426.445679 713.298096,426.032623 
	C717.309082,424.582336 717.386475,421.426025 718.169067,418.119446 
	C718.753174,415.652161 720.311646,413.246979 721.953125,411.236145 
	C724.742371,407.819305 724.968079,404.176178 724.694946,399.232422 
	C722.699829,400.819855 721.627441,401.673157 720.756165,402.366394 
	C719.519714,399.200714 719.120605,395.517365 717.071472,393.572662 
	C714.184326,390.832642 712.765320,388.200134 713.464172,384.428650 
	C714.169861,380.619659 713.248779,377.800659 709.851074,375.423737 
	C705.839050,372.617035 705.469971,369.076965 708.080017,364.335571 
	C709.217590,365.155243 710.315308,365.946198 712.140015,367.260956 
	C712.356323,357.112823 710.622498,348.083069 707.372070,339.361542 
	C706.832397,337.913300 704.659058,337.118713 703.364502,335.891418 
	C702.472473,335.045776 701.340393,334.078369 701.091370,332.988159 
	C698.862854,323.232452 696.936462,313.406708 694.637756,303.668488 
	C693.677246,299.599396 691.057617,298.674988 688.101990,301.141113 
	C684.689087,303.988892 685.356323,310.219543 679.792725,311.398956 
	C679.067139,318.129150 678.195984,324.848145 677.676331,331.594177 
	C677.409363,335.058960 678.075195,338.596771 677.795410,342.059235 
	C676.365662,359.754791 674.642944,377.427124 673.276489,395.127197 
	C672.611206,403.744904 672.499878,412.405334 672.208313,421.950165 
M397.577087,96.145805 
	C402.277069,95.792473 406.977081,95.439140 411.677063,95.085808 
	C403.975555,88.219894 390.009430,90.060318 380.563324,98.008087 
	C386.182373,97.429123 391.498291,96.881386 397.577087,96.145805 
M121.972794,428.405914 
	C121.622459,423.953369 121.272118,419.500854 120.863297,414.305115 
	C114.677696,419.714508 114.496140,433.709106 120.359291,438.143372 
	C120.939949,434.919525 121.445488,432.112671 121.972794,428.405914 
M773.618713,338.114014 
	C772.129761,336.629547 770.640869,335.145081 768.716797,333.226837 
	C766.789185,340.408142 768.529541,344.004639 774.656250,345.590759 
	C774.386597,343.105865 774.152588,340.949493 773.618713,338.114014 
M146.367111,549.540161 
	C150.000946,545.604919 146.538193,543.726379 144.425583,541.010925 
	C141.219940,545.799377 141.673874,547.895386 146.367111,549.540161 
M746.156555,269.992737 
	C745.507690,271.190613 744.858826,272.388458 744.209961,273.586334 
	C744.793213,273.941681 745.376465,274.297028 745.959717,274.652374 
	C746.941589,273.153046 747.923462,271.653717 748.905396,270.154388 
	C748.126282,269.989349 747.347107,269.824310 746.156555,269.992737 
M691.305176,195.043320 
	C690.503662,194.433716 689.702087,193.824112 688.900574,193.214508 
	C688.651062,194.050919 688.401550,194.887314 688.152039,195.723694 
	C689.153564,195.661804 690.155029,195.599915 691.305176,195.043320 
M765.669617,326.919769 
	C765.293945,326.125275 764.918274,325.330811 764.542664,324.536346 
	C764.065308,324.982147 763.587952,325.427948 763.110596,325.873749 
	C763.932556,326.372711 764.754456,326.871674 765.669617,326.919769 
M543.694641,103.095467 
	C543.862793,103.799026 544.031006,104.502586 544.199219,105.206139 
	C544.716797,104.921547 545.234436,104.636955 545.752014,104.352364 
	C545.202515,103.861397 544.652954,103.370430 543.694641,103.095467 
M698.629089,202.534988 
	C698.428406,202.038376 698.227783,201.541763 698.027100,201.045135 
	C697.643616,201.420959 697.260193,201.796783 696.876770,202.172607 
	C697.369934,202.380661 697.863159,202.588730 698.629089,202.534988 
M152.819443,273.864044 
	C153.150085,273.471863 153.480728,273.079651 153.811371,272.687469 
	C153.426407,272.522858 153.041443,272.358246 152.656494,272.193634 
	C152.606918,272.704620 152.557343,273.215637 152.819443,273.864044 
M739.038269,544.955017 
	C738.665649,544.850891 738.293030,544.746765 737.920410,544.642639 
	C737.924561,544.942871 737.928711,545.243042 737.932800,545.543274 
	C738.302734,545.449341 738.672668,545.355347 739.038269,544.955017 
M362.704163,102.147171 
	C362.496063,102.293716 362.287964,102.440254 362.079834,102.586784 
	C362.182098,102.696884 362.284363,102.806984 362.386627,102.917084 
	C362.542328,102.715172 362.697998,102.513260 362.704163,102.147171 
M606.141174,131.710052 
	C606.395142,131.685364 606.649170,131.660690 606.903137,131.636017 
	C606.868408,131.489548 606.833679,131.343079 606.799011,131.196609 
	C606.563354,131.295532 606.327698,131.394470 606.141174,131.710052 
M556.410645,106.942101 
	C556.607483,106.803329 556.804260,106.664551 557.001099,106.525803 
	C556.906921,106.423485 556.812744,106.321167 556.718628,106.218819 
	C556.570312,106.409271 556.422058,106.599731 556.410645,106.942101 
M571.389587,112.859955 
	C571.486633,112.933136 571.583679,113.006317 571.680725,113.079514 
	C571.621704,112.996643 571.562683,112.913765 571.389587,112.859955 
M466.979645,87.028755 
	C466.979645,87.028755 466.954559,86.995636 466.979645,87.028755 
M289.979645,150.028656 
	C289.979645,150.028656 289.954529,149.995529 289.979645,150.028656 
M774.028625,465.020355 
	C774.028625,465.020355 773.995544,465.045410 774.028625,465.020355 
M123.971313,463.979706 
	C123.971313,463.979706 124.004417,463.954651 123.971313,463.979706 
z"/>
<path fill="#020201" opacity="1.000000" stroke="none" 
	d="
M665.991638,366.999420 
	C665.791870,384.977783 665.435303,402.956055 665.423401,420.934540 
	C665.394104,465.059143 665.523682,509.183868 665.674194,553.687500 
	C665.671265,567.118408 665.583374,580.170410 665.470703,594.112427 
	C664.387817,614.571899 667.798035,634.424316 661.402771,653.765625 
	C657.540649,657.439758 654.007812,661.025024 650.152222,664.726746 
	C642.764771,669.485352 635.041748,671.006714 626.584351,670.997498 
	C509.778473,670.869873 392.972290,670.891479 276.166290,670.972717 
	C266.739502,670.979309 257.514496,670.639771 248.971573,665.449097 
	C247.231705,663.741882 245.620438,662.324524 243.777023,660.679016 
	C241.755157,658.566040 239.965439,656.681152 238.088593,654.430237 
	C236.395905,647.388489 234.790329,640.712891 233.184769,634.037231 
	C233.228668,620.669495 233.272568,607.301697 233.230209,593.472717 
	C233.361557,579.290833 233.579163,565.570129 234.139648,551.246582 
	C242.059250,542.770508 249.506866,534.767090 257.268188,527.080383 
	C261.036774,523.348083 265.431610,520.254333 269.476471,516.793762 
	C300.949524,489.867279 332.402924,462.917755 363.882202,435.998505 
	C365.056488,434.994293 366.434296,434.228058 369.212219,432.328918 
	C369.212219,445.961761 369.212219,458.027771 369.137756,470.551025 
	C369.008179,471.672272 368.905060,472.336304 368.904877,473.000305 
	C368.891388,518.321716 368.881073,563.643127 368.907379,608.964539 
	C368.908081,610.185791 369.312012,611.406860 369.679169,613.483582 
	C374.143951,609.602783 377.988220,606.261292 382.121704,602.746460 
	C404.937256,583.592041 427.503082,564.657532 449.982452,545.621033 
	C513.994690,491.412445 577.958130,437.146332 641.976807,382.945404 
	C651.850403,374.585968 661.317078,366.007843 664.649475,352.760162 
	C664.797363,352.172150 665.435120,351.707306 665.836365,351.639648 
	C665.882507,357.062622 665.937073,362.031006 665.991638,366.999420 
z"/>
<path fill="#4D4D4E" opacity="1.000000" stroke="none" 
	d="
M661.732117,653.676880 
	C667.798035,634.424316 664.387817,614.571899 665.538574,594.547729 
	C667.094116,596.064819 669.593384,597.912598 669.846741,600.029175 
	C671.191223,611.264099 671.968567,622.566895 672.949524,633.845520 
	C673.439880,639.483215 674.372681,645.121155 674.351685,650.756165 
	C674.312927,661.163086 674.357483,671.640625 673.182983,681.953857 
	C671.925171,692.997925 663.779663,699.559937 654.950256,705.005310 
	C648.318970,709.095032 641.268433,709.688538 633.388550,708.437683 
	C624.578186,707.039185 615.435425,707.895630 606.484375,707.181152 
	C596.214600,706.361450 586.023010,704.525757 575.750366,703.786072 
	C554.843628,702.280701 533.918030,700.889771 512.976135,700.062683 
	C493.372070,699.288330 473.732422,698.873352 454.116333,699.073547 
	C425.854309,699.361816 397.560425,699.651672 369.352081,701.228210 
	C339.128998,702.917542 308.984833,706.047363 278.815582,708.656616 
	C268.031342,709.589355 257.447845,708.653564 247.265091,705.123657 
	C243.959961,703.978027 240.705780,701.647278 238.337418,699.034424 
	C231.557785,691.555054 226.023743,683.401184 226.807968,672.452820 
	C227.461166,663.333801 227.303436,654.143982 228.265213,645.066040 
	C228.655579,641.381409 231.059799,637.910095 232.866211,634.189453 
	C234.790329,640.712891 236.395905,647.388489 237.956421,654.827393 
	C235.024399,670.372559 245.642105,693.839050 268.998749,692.503723 
	C291.245361,691.231934 313.503540,690.164062 335.751678,688.917847 
	C345.023010,688.398438 354.272369,687.390015 363.547882,687.063477 
	C378.820587,686.525879 394.106812,686.376160 409.386749,686.036560 
	C423.869141,685.714661 438.365936,685.665527 452.829254,684.948547 
	C476.408203,683.779663 499.816254,688.293335 523.533081,685.900940 
	C537.448059,684.497253 551.734314,686.658813 565.845947,687.368958 
	C573.140320,687.736023 580.409546,688.646301 587.705078,688.939392 
	C601.653076,689.499817 615.622986,689.566467 629.563660,690.249329 
	C654.204224,691.456543 662.662903,675.160339 661.732117,653.676880 
z"/>
<path fill="#5C5D5D" opacity="1.000000" stroke="none" 
	d="
M775.831299,504.556458 
	C774.268799,511.195679 772.581665,517.541748 770.879089,523.945923 
	C764.570007,519.746460 762.683167,509.746887 767.113464,505.043884 
	C769.772278,502.221375 772.558350,501.401978 775.831299,504.556458 
z"/>
<path fill="#222327" opacity="1.000000" stroke="none" 
	d="
M369.212219,470.093750 
	C369.212219,458.027771 369.212219,445.961761 369.212219,432.328918 
	C366.434296,434.228058 365.056488,434.994293 363.882202,435.998505 
	C332.402924,462.917755 300.949524,489.867279 269.476471,516.793762 
	C265.431610,520.254333 261.036774,523.348083 257.268188,527.080383 
	C249.506866,534.767090 242.059250,542.770508 234.198044,550.820557 
	C233.693588,550.201538 233.473633,549.405579 233.225189,547.841064 
	C233.204788,533.276184 233.232986,519.479919 233.217133,505.683685 
	C233.172409,466.788574 233.109589,427.893494 233.053894,388.998383 
	C233.257050,358.181976 233.476349,327.365662 233.650345,296.549103 
	C233.687012,290.053253 233.557510,283.556458 233.533081,276.176208 
	C233.511505,274.145996 233.461456,272.999634 233.411407,271.853302 
	C233.535843,266.190643 233.896164,260.521393 233.738174,254.866638 
	C233.346130,240.835205 249.293655,226.368561 263.120117,226.037476 
	C273.437958,225.790405 283.751740,225.374893 295.000000,225.018433 
	C366.338989,224.968521 436.745300,224.933243 507.151611,224.901184 
	C544.434021,224.884216 581.716431,224.872940 618.998840,224.859100 
	C629.169861,224.791473 639.171814,225.554810 648.470764,231.282944 
	C645.792419,234.838684 642.902405,237.924545 639.737976,241.199127 
	C616.655640,260.610596 593.847717,279.833344 570.764954,299.241669 
	C567.659241,301.929993 564.828369,304.432739 561.727661,307.134644 
	C554.629639,313.211700 547.801331,319.089630 540.705444,325.166321 
	C529.646118,334.370911 518.791565,343.303406 508.102844,352.430054 
	C505.127747,354.970428 502.643524,358.085663 499.611786,361.059753 
	C492.277679,366.723846 485.128876,372.101959 478.283020,377.841431 
	C464.432068,389.453888 450.745361,401.262268 436.721710,413.185364 
	C431.961639,417.247437 427.470825,421.114044 422.754303,425.158997 
	C421.982697,425.875092 421.436829,426.412811 420.629944,427.130890 
	C418.889801,428.525909 417.410614,429.740570 415.637939,431.118042 
	C406.464661,438.797546 397.599335,446.331512 388.700073,453.825195 
	C382.227325,459.275604 375.709778,464.672821 369.212219,470.093750 
z"/>
<path fill="#3B3C3E" opacity="1.000000" stroke="none" 
	d="
M640.012390,241.010391 
	C642.902405,237.924545 645.792419,234.838684 648.784851,231.441864 
	C658.906067,236.558029 664.067078,245.295898 666.051270,257.088562 
	C666.018433,289.022614 665.931580,320.103882 665.844727,351.185120 
	C665.435120,351.707306 664.797363,352.172150 664.649475,352.760162 
	C661.317078,366.007843 651.850403,374.585968 641.976807,382.945404 
	C577.958130,437.146332 513.994690,491.412445 449.982452,545.621033 
	C427.503082,564.657532 404.937256,583.592041 381.808899,602.621460 
	C377.182404,601.193542 375.039673,598.322876 374.791351,594.036560 
	C374.322235,585.939819 373.285339,577.830261 373.477112,569.749512 
	C374.080780,544.309082 375.176361,518.880615 376.008118,493.445099 
	C376.213959,487.150635 378.045013,481.674133 382.989899,477.515137 
	C391.342621,470.490021 399.642975,463.400940 408.076996,456.474701 
	C416.813263,449.300232 425.826202,442.457184 434.448486,435.151031 
	C441.548615,429.134674 448.075897,422.441528 455.186401,416.438416 
	C462.025574,410.664459 469.457031,405.594391 476.329987,399.857635 
	C493.158173,385.811523 509.800903,371.543365 526.542969,357.393829 
	C546.463501,340.558014 566.398193,323.738922 586.350037,306.940308 
	C596.000061,298.815460 605.567993,290.584076 615.427856,282.720367 
	C622.689392,276.928986 630.577148,271.914398 637.742249,266.014893 
	C640.346375,263.870697 642.409668,260.392578 643.406311,257.122742 
	C645.150635,251.399643 643.178528,245.961975 640.012390,241.010391 
z"/>
<path fill="#626262" opacity="1.000000" stroke="none" 
	d="
M619.133545,224.577179 
	C581.716431,224.872940 544.434021,224.884216 507.151611,224.901184 
	C436.745300,224.933243 366.338989,224.968521 295.465424,224.958527 
	C291.482758,223.387604 287.967377,221.860596 284.167816,220.210175 
	C288.395599,214.799057 293.750397,211.246323 300.840271,211.208878 
	C307.411804,211.174149 312.571014,208.089066 317.655304,204.524826 
	C318.838928,203.695068 320.188263,202.916504 321.573120,202.593628 
	C325.776031,201.613739 329.253113,200.311401 328.403381,194.801559 
	C328.265442,193.907181 329.489838,192.324997 330.474762,191.816193 
	C335.270233,189.338913 340.170502,187.057159 345.087646,184.825119 
	C349.549377,182.799820 353.940552,180.426941 358.617767,179.118515 
	C364.087769,177.588348 369.874695,177.984726 374.412933,173.019669 
	C376.105621,171.167740 380.950104,171.631073 384.266022,171.960083 
	C389.326996,172.462234 394.456787,174.765762 397.711273,168.311157 
	C398.224518,167.293289 400.665314,167.103027 402.265991,166.800903 
	C413.665436,164.649368 425.048737,162.383713 436.501221,160.555710 
	C441.064972,159.827240 445.790955,160.112457 450.443298,159.942398 
	C454.484741,159.794662 457.796265,158.973450 459.364990,154.355499 
	C460.626556,150.641769 468.169250,150.536865 471.186859,154.638901 
	C475.133820,160.004227 480.188538,161.700012 486.430328,162.681717 
	C494.776398,163.994370 502.840057,167.372070 511.197266,168.283981 
	C525.122498,169.803452 536.870789,176.675140 549.487488,181.547302 
	C556.240051,184.154922 563.703308,184.910522 569.511902,189.825531 
	C580.268494,189.082260 586.313965,198.448334 595.154724,201.932907 
	C598.975220,203.438766 601.862061,207.206192 605.343994,209.708496 
	C608.830017,212.213821 612.470947,214.519485 616.153137,216.730957 
	C619.161072,218.537476 621.406433,220.460312 619.133545,224.577179 
M336.243835,192.499115 
	C336.560333,192.300903 336.876831,192.102692 337.193329,191.904465 
	C336.959564,191.758102 336.725769,191.611740 336.491974,191.465378 
	C336.329071,191.764496 336.166168,192.063629 336.243835,192.499115 
z"/>
<path fill="#5F6060" opacity="1.000000" stroke="none" 
	d="
M232.731720,388.826477 
	C233.109589,427.893494 233.172409,466.788574 233.217133,505.683685 
	C233.232986,519.479919 233.204788,533.276184 233.146118,547.539429 
	C231.610901,548.210999 230.125168,548.408203 228.641815,548.621765 
	C223.952560,549.296814 223.012741,552.171326 224.273407,556.227173 
	C226.518387,563.449646 224.400558,569.979614 221.253586,576.394104 
	C220.014740,578.919250 218.000702,579.962585 216.320496,577.552917 
	C211.603058,570.787598 205.193237,564.175598 203.557373,556.614746 
	C202.260315,550.619751 200.650208,544.896423 198.162033,539.506042 
	C195.576813,533.905273 191.181381,529.106140 188.844330,523.434509 
	C186.573486,517.923462 184.919968,511.764496 184.836014,505.863892 
	C184.761917,500.656769 184.902847,495.978821 182.670364,490.951630 
	C180.495193,486.053406 180.411606,480.266693 178.893768,475.019318 
	C178.125443,472.363159 176.008545,470.126556 174.893066,467.531860 
	C174.019897,465.500824 172.904770,462.999451 173.384781,461.078857 
	C174.430954,456.892914 175.374496,453.607574 170.355225,451.064514 
	C166.975357,449.352051 166.864761,445.145721 169.792023,442.733734 
	C176.259476,437.404755 177.715927,430.633362 177.002487,422.664246 
	C176.427231,416.238617 176.694321,409.730377 176.722641,403.259369 
	C176.782837,389.502838 176.695984,375.737946 177.208771,361.996582 
	C177.336288,358.579437 179.599380,355.265869 180.737030,351.856659 
	C182.233780,347.371246 184.257080,342.922913 184.840561,338.305298 
	C185.630371,332.054901 186.587036,326.538055 193.140518,323.554932 
	C194.418732,322.973083 195.776230,320.012939 195.367554,318.680115 
	C191.996796,307.687103 199.127975,299.171234 202.192505,289.861511 
	C204.247025,283.620117 207.265900,277.397522 213.084381,273.009125 
	C216.936340,270.103882 219.422729,269.925262 220.650360,274.757721 
	C222.070190,280.346771 222.400253,286.206421 223.339386,291.926270 
	C223.837387,294.959351 224.576431,297.956451 225.296402,300.948151 
	C225.757492,302.864166 226.786163,304.722839 226.870926,306.637756 
	C227.666016,324.599152 228.295441,342.567780 229.009094,360.532867 
	C229.319656,368.350891 229.598083,376.174103 230.167328,383.974762 
	C230.284531,385.580719 231.630157,387.096985 232.731720,388.826477 
M227.593567,522.905457 
	C227.729416,515.923523 227.971817,508.941711 227.982529,501.959564 
	C228.026993,472.972107 227.727493,443.981232 228.082153,414.998047 
	C228.408615,388.318817 224.854523,362.017334 221.534531,335.670776 
	C221.483002,335.261932 220.966843,334.911591 219.846542,333.498169 
	C217.492493,335.441193 214.872955,337.119049 212.903061,339.366333 
	C210.955734,341.587891 209.682205,344.395782 208.078613,346.924561 
	C207.204865,348.302399 205.710602,349.531006 205.432037,351.003906 
	C202.869873,364.550262 199.941650,378.066010 198.282211,391.731812 
	C197.025757,402.078857 197.311752,412.629730 197.177856,423.093323 
	C196.829681,450.302032 201.209000,476.752563 210.379333,502.384491 
	C213.449814,510.966766 216.543472,519.544312 219.875946,528.025940 
	C220.461975,529.517395 222.284790,530.522827 223.536392,531.752747 
	C224.498840,530.368713 225.619370,529.064697 226.373062,527.575134 
	C226.960922,526.413269 227.092728,525.020752 227.593567,522.905457 
z"/>
<path fill="#626262" opacity="1.000000" stroke="none" 
	d="
M672.173035,421.498291 
	C672.499878,412.405334 672.611206,403.744904 673.276489,395.127197 
	C674.642944,377.427124 676.365662,359.754791 677.795410,342.059235 
	C678.075195,338.596771 677.409363,335.058960 677.676331,331.594177 
	C678.195984,324.848145 679.067139,318.129150 679.792725,311.398956 
	C685.356323,310.219543 684.689087,303.988892 688.101990,301.141113 
	C691.057617,298.674988 693.677246,299.599396 694.637756,303.668488 
	C696.936462,313.406708 698.862854,323.232452 701.091370,332.988159 
	C701.340393,334.078369 702.472473,335.045776 703.364502,335.891418 
	C704.659058,337.118713 706.832397,337.913300 707.372070,339.361542 
	C710.622498,348.083069 712.356323,357.112823 712.140015,367.260956 
	C710.315308,365.946198 709.217590,365.155243 708.080017,364.335571 
	C705.469971,369.076965 705.839050,372.617035 709.851074,375.423737 
	C713.248779,377.800659 714.169861,380.619659 713.464172,384.428650 
	C712.765320,388.200134 714.184326,390.832642 717.071472,393.572662 
	C719.120605,395.517365 719.519714,399.200714 720.756165,402.366394 
	C721.627441,401.673157 722.699829,400.819855 724.694946,399.232422 
	C724.968079,404.176178 724.742371,407.819305 721.953125,411.236145 
	C720.311646,413.246979 718.753174,415.652161 718.169067,418.119446 
	C717.386475,421.426025 717.309082,424.582336 713.298096,426.032623 
	C712.155823,426.445679 711.152649,428.952362 711.138245,430.508667 
	C711.009338,444.424896 709.081055,458.022491 704.687988,471.253113 
	C704.326111,472.343140 704.033569,473.574188 704.159729,474.688690 
	C704.862976,480.900421 704.653870,486.898865 701.247864,492.456543 
	C700.686523,493.372437 700.420593,494.852814 700.726257,495.856750 
	C703.468933,504.866241 699.716736,513.579102 697.747253,521.709961 
	C696.263062,527.837402 693.008545,534.323669 690.312622,540.534851 
	C688.832703,543.944580 684.766235,546.231567 681.593567,549.287231 
	C679.592712,545.424927 676.429626,541.404541 675.447571,536.907715 
	C674.153015,530.979919 674.621765,524.674927 674.231323,518.538513 
	C674.031921,515.404541 673.440979,512.291077 673.321960,509.157166 
	C672.874451,497.373383 672.468262,485.586761 672.203064,473.797668 
	C672.009033,465.170746 672.010132,456.538239 672.015503,447.908264 
	C672.020874,439.255524 672.139404,430.602875 672.173035,421.498291 
z"/>
<path fill="#585858" opacity="1.000000" stroke="none" 
	d="
M665.836365,351.639648 
	C665.931580,320.103882 666.018433,289.022614 666.134338,257.474976 
	C667.466553,259.220276 669.521118,261.294983 669.953369,263.665497 
	C673.268494,281.842560 675.035156,300.010895 672.648193,318.619934 
	C670.884094,332.372742 671.154602,346.393890 670.697754,360.301361 
	C670.594727,363.438324 670.092529,365.906952 666.341187,366.907257 
	C665.937073,362.031006 665.882507,357.062622 665.836365,351.639648 
z"/>
<path fill="#585858" opacity="1.000000" stroke="none" 
	d="
M397.195679,96.239731 
	C391.498291,96.881386 386.182373,97.429123 380.563324,98.008087 
	C390.009430,90.060318 403.975555,88.219894 411.677063,95.085808 
	C406.977081,95.439140 402.277069,95.792473 397.195679,96.239731 
z"/>
<path fill="#585858" opacity="1.000000" stroke="none" 
	d="
M121.961914,428.855896 
	C121.445488,432.112671 120.939949,434.919525 120.359291,438.143372 
	C114.496140,433.709106 114.677696,419.714508 120.863297,414.305115 
	C121.272118,419.500854 121.622459,423.953369 121.961914,428.855896 
z"/>
<path fill="#585858" opacity="1.000000" stroke="none" 
	d="
M773.768677,338.453583 
	C774.152588,340.949493 774.386597,343.105865 774.656250,345.590759 
	C768.529541,344.004639 766.789185,340.408142 768.716797,333.226837 
	C770.640869,335.145081 772.129761,336.629547 773.768677,338.453583 
z"/>
<path fill="#585858" opacity="1.000000" stroke="none" 
	d="
M146.098206,549.647278 
	C141.673874,547.895386 141.219940,545.799377 144.425583,541.010925 
	C146.538193,543.726379 150.000946,545.604919 146.098206,549.647278 
z"/>
<path fill="#585858" opacity="1.000000" stroke="none" 
	d="
M746.362305,269.825989 
	C747.347107,269.824310 748.126282,269.989349 748.905396,270.154358 
	C747.923462,271.653717 746.941589,273.153046 745.959717,274.652374 
	C745.376465,274.297028 744.793213,273.941681 744.209961,273.586334 
	C744.858826,272.388458 745.507690,271.190613 746.362305,269.825989 
z"/>
<path fill="#585858" opacity="1.000000" stroke="none" 
	d="
M691.230835,195.290665 
	C690.155029,195.599915 689.153564,195.661804 688.152039,195.723694 
	C688.401550,194.887314 688.651062,194.050919 688.900574,193.214508 
	C689.702087,193.824112 690.503662,194.433716 691.230835,195.290665 
z"/>
<path fill="#585858" opacity="1.000000" stroke="none" 
	d="
M765.623047,327.145203 
	C764.754456,326.871674 763.932556,326.372711 763.110596,325.873749 
	C763.587952,325.427948 764.065308,324.982147 764.542664,324.536346 
	C764.918274,325.330811 765.293945,326.125275 765.623047,327.145203 
z"/>
<path fill="#585858" opacity="1.000000" stroke="none" 
	d="
M543.899048,102.987465 
	C544.652954,103.370430 545.202515,103.861397 545.752014,104.352364 
	C545.234436,104.636955 544.716797,104.921547 544.199219,105.206139 
	C544.031006,104.502586 543.862793,103.799026 543.899048,102.987465 
z"/>
<path fill="#585858" opacity="1.000000" stroke="none" 
	d="
M698.492676,202.665894 
	C697.863159,202.588730 697.369934,202.380661 696.876770,202.172607 
	C697.260193,201.796783 697.643616,201.420959 698.027100,201.045135 
	C698.227783,201.541763 698.428406,202.038376 698.492676,202.665894 
z"/>
<path fill="#4D4D4E" opacity="1.000000" stroke="none" 
	d="
M233.202011,272.003174 
	C233.461456,272.999634 233.511505,274.145996 233.490906,275.718750 
	C233.277710,274.814453 233.135162,273.483765 233.202011,272.003174 
z"/>
<path fill="#585858" opacity="1.000000" stroke="none" 
	d="
M152.663605,273.795349 
	C152.557343,273.215637 152.606918,272.704620 152.656494,272.193634 
	C153.041443,272.358246 153.426407,272.522858 153.811371,272.687469 
	C153.480728,273.079651 153.150085,273.471863 152.663605,273.795349 
z"/>
<path fill="#585858" opacity="1.000000" stroke="none" 
	d="
M739.040405,545.108215 
	C738.672668,545.355347 738.302734,545.449341 737.932800,545.543274 
	C737.928711,545.243042 737.924561,544.942871 737.920410,544.642639 
	C738.293030,544.746765 738.665649,544.850891 739.040405,545.108215 
z"/>
<path fill="#585858" opacity="1.000000" stroke="none" 
	d="
M362.778931,102.229256 
	C362.697998,102.513260 362.542328,102.715172 362.386627,102.917084 
	C362.284363,102.806984 362.182098,102.696884 362.079834,102.586792 
	C362.287964,102.440254 362.496063,102.293716 362.778931,102.229256 
z"/>
<path fill="#585858" opacity="1.000000" stroke="none" 
	d="
M606.116577,131.601715 
	C606.327698,131.394470 606.563354,131.295532 606.799011,131.196609 
	C606.833679,131.343079 606.868408,131.489548 606.903137,131.636017 
	C606.649170,131.660690 606.395142,131.685364 606.116577,131.601715 
z"/>
<path fill="#585858" opacity="1.000000" stroke="none" 
	d="
M556.342224,106.866142 
	C556.422058,106.599731 556.570312,106.409271 556.718628,106.218834 
	C556.812744,106.321167 556.906921,106.423485 557.001099,106.525787 
	C556.804260,106.664551 556.607483,106.803329 556.342224,106.866142 
z"/>
<path fill="#585858" opacity="1.000000" stroke="none" 
	d="
M571.446655,112.845428 
	C571.562683,112.913765 571.621704,112.996643 571.680725,113.079514 
	C571.583679,113.006317 571.486633,112.933136 571.446655,112.845428 
z"/>
<path fill="#585858" opacity="1.000000" stroke="none" 
	d="
M466.967102,87.012192 
	C466.954559,86.995636 466.979645,87.028755 466.967102,87.012192 
z"/>
<path fill="#585858" opacity="1.000000" stroke="none" 
	d="
M289.967102,150.012085 
	C289.954529,149.995529 289.979645,150.028656 289.967102,150.012085 
z"/>
<path fill="#585858" opacity="1.000000" stroke="none" 
	d="
M774.012085,465.032898 
	C773.995544,465.045410 774.028625,465.020355 774.012085,465.032898 
z"/>
<path fill="#585858" opacity="1.000000" stroke="none" 
	d="
M123.987869,463.967163 
	C124.004417,463.954651 123.971313,463.979706 123.987869,463.967163 
z"/>
<path fill="#363639" opacity="1.000000" stroke="none" 
	d="
M639.737976,241.199127 
	C643.178528,245.961975 645.150635,251.399643 643.406311,257.122742 
	C642.409668,260.392578 640.346375,263.870697 637.742249,266.014893 
	C630.577148,271.914398 622.689392,276.928986 615.427856,282.720367 
	C605.567993,290.584076 596.000061,298.815460 586.350037,306.940308 
	C566.398193,323.738922 546.463501,340.558014 526.542969,357.393829 
	C509.800903,371.543365 493.158173,385.811523 476.329987,399.857635 
	C469.457031,405.594391 462.025574,410.664459 455.186401,416.438416 
	C448.075897,422.441528 441.548615,429.134674 434.448486,435.151031 
	C425.826202,442.457184 416.813263,449.300232 408.076996,456.474701 
	C399.642975,463.400940 391.342621,470.490021 382.989899,477.515137 
	C378.045013,481.674133 376.213959,487.150635 376.008118,493.445099 
	C375.176361,518.880615 374.080780,544.309082 373.477112,569.749512 
	C373.285339,577.830261 374.322235,585.939819 374.791351,594.036560 
	C375.039673,598.322876 377.182404,601.193542 381.519684,602.794800 
	C377.988220,606.261292 374.143951,609.602783 369.679169,613.483582 
	C369.312012,611.406860 368.908081,610.185791 368.907379,608.964539 
	C368.881073,563.643127 368.891388,518.321716 368.904877,473.000305 
	C368.905060,472.336304 369.008179,471.672272 369.137756,470.551025 
	C375.709778,464.672821 382.227325,459.275604 388.700073,453.825195 
	C397.599335,446.331512 406.464661,438.797546 416.026306,431.116089 
	C418.641296,430.181152 423.264282,432.223206 420.890930,426.950531 
	C421.436829,426.412811 421.982697,425.875092 423.114441,425.269348 
	C427.235962,426.328949 430.086426,425.627350 432.181396,422.319885 
	C432.853882,421.258179 433.853729,420.100922 434.966644,419.676392 
	C438.704865,418.250458 438.320312,415.819214 436.990997,412.989929 
	C450.745361,401.262268 464.432068,389.453888 478.283020,377.841431 
	C485.128876,372.101959 492.277679,366.723846 499.967041,361.154785 
	C504.751984,360.202759 509.545471,360.316620 512.829773,358.146423 
	C520.677673,352.960815 528.347656,347.241058 535.035339,340.664978 
	C538.948792,336.816803 545.168396,332.470886 540.973022,324.967560 
	C547.801331,319.089630 554.629639,313.211700 561.770081,307.471985 
	C562.476196,309.725494 563.008911,311.600616 565.878418,310.384918 
	C569.715149,308.759399 572.229553,303.293396 571.039795,299.056091 
	C593.847717,279.833344 616.655640,260.610596 639.737976,241.199127 
z"/>
<path fill="#333434" opacity="1.000000" stroke="none" 
	d="
M249.100159,665.738953 
	C257.514496,670.639771 266.739502,670.979309 276.166290,670.972717 
	C392.972290,670.891479 509.778473,670.869873 626.584351,670.997498 
	C635.041748,671.006714 642.764771,669.485352 650.307739,665.063843 
	C651.490234,670.792725 646.122192,678.110779 639.568359,679.724731 
	C634.770569,680.906372 629.745056,682.029358 624.867310,681.858093 
	C609.937988,681.334167 595.041809,679.839417 580.112244,679.352234 
	C564.659180,678.848022 549.182251,679.014282 533.715637,679.003784 
	C484.141541,678.970093 434.567474,678.990356 384.656067,678.875732 
	C376.182892,678.733948 368.045380,678.587769 359.911530,678.702698 
	C341.459656,678.963196 323.008057,679.286804 304.559265,679.711609 
	C291.753876,680.006470 278.953217,680.824158 266.150635,680.819824 
	C256.878967,680.816650 250.686279,674.870911 249.100159,665.738953 
z"/>
<path fill="#3B3C3E" opacity="1.000000" stroke="none" 
	d="
M384.993378,678.989746 
	C434.567474,678.990356 484.141541,678.970093 533.715637,679.003784 
	C549.182251,679.014282 564.659180,678.848022 580.112244,679.352234 
	C595.041809,679.839417 609.937988,681.334167 624.867310,681.858093 
	C629.745056,682.029358 634.770569,680.906372 639.568359,679.724731 
	C646.122192,678.110779 651.490234,670.792725 650.630554,664.947388 
	C654.007812,661.025024 657.540649,657.439758 661.402771,653.765625 
	C662.662903,675.160339 654.204224,691.456543 629.563660,690.249329 
	C615.622986,689.566467 601.653076,689.499817 587.705078,688.939392 
	C580.409546,688.646301 573.140320,687.736023 565.845947,687.368958 
	C551.734314,686.658813 537.448059,684.497253 523.533081,685.900940 
	C499.816254,688.293335 476.408203,683.779663 452.829254,684.948547 
	C438.365936,685.665527 423.869141,685.714661 409.386749,686.036560 
	C394.106812,686.376160 378.820587,686.525879 363.547882,687.063477 
	C354.272369,687.390015 345.023010,688.398438 335.751678,688.917847 
	C313.503540,690.164062 291.245361,691.231934 268.998749,692.503723 
	C245.642105,693.839050 235.024399,670.372559 238.043549,655.193481 
	C239.965439,656.681152 241.755157,658.566040 243.837677,661.087158 
	C244.768677,669.677612 246.731323,677.218140 254.550537,680.924683 
	C259.055969,683.060425 264.277649,684.741211 269.185699,684.764404 
	C281.645966,684.823303 294.107422,683.727844 306.575165,683.284973 
	C330.198212,682.445801 353.827911,681.792480 377.448853,680.902100 
	C379.984100,680.806519 382.479492,679.652710 384.993378,678.989746 
z"/>
<path fill="#363639" opacity="1.000000" stroke="none" 
	d="
M384.656067,678.875732 
	C382.479492,679.652710 379.984100,680.806519 377.448853,680.902100 
	C353.827911,681.792480 330.198212,682.445801 306.575165,683.284973 
	C294.107422,683.727844 281.645966,684.823303 269.185699,684.764404 
	C264.277649,684.741211 259.055969,683.060425 254.550537,680.924683 
	C246.731323,677.218140 244.768677,669.677612 244.069824,661.315308 
	C245.620438,662.324524 247.231705,663.741882 248.971573,665.449097 
	C250.686279,674.870911 256.878967,680.816650 266.150635,680.819824 
	C278.953217,680.824158 291.753876,680.006470 304.559265,679.711609 
	C323.008057,679.286804 341.459656,678.963196 359.911530,678.702698 
	C368.045380,678.587769 376.182892,678.733948 384.656067,678.875732 
z"/>
<path fill="#333434" opacity="1.000000" stroke="none" 
	d="
M540.705444,325.166321 
	C545.168396,332.470886 538.948792,336.816803 535.035339,340.664978 
	C528.347656,347.241058 520.677673,352.960815 512.829773,358.146423 
	C509.545471,360.316620 504.751984,360.202759 500.289368,361.032257 
	C502.643524,358.085663 505.127747,354.970428 508.102844,352.430054 
	C518.791565,343.303406 529.646118,334.370911 540.705444,325.166321 
z"/>
<path fill="#333434" opacity="1.000000" stroke="none" 
	d="
M436.721710,413.185364 
	C438.320312,415.819214 438.704865,418.250458 434.966644,419.676392 
	C433.853729,420.100922 432.853882,421.258179 432.181396,422.319885 
	C430.086426,425.627350 427.235962,426.328949 423.340179,425.090973 
	C427.470825,421.114044 431.961639,417.247437 436.721710,413.185364 
z"/>
<path fill="#333434" opacity="1.000000" stroke="none" 
	d="
M570.764954,299.241699 
	C572.229553,303.293396 569.715149,308.759399 565.878418,310.384918 
	C563.008911,311.600616 562.476196,309.725494 562.039795,307.272827 
	C564.828369,304.432739 567.659241,301.929993 570.764954,299.241699 
z"/>
<path fill="#333434" opacity="1.000000" stroke="none" 
	d="
M420.629944,427.130890 
	C423.264282,432.223206 418.641296,430.181152 416.319763,430.953278 
	C417.410614,429.740570 418.889801,428.525909 420.629944,427.130890 
z"/>
<path fill="#5C5D5D" opacity="1.000000" stroke="none" 
	d="
M336.123535,192.430939 
	C336.166168,192.063629 336.329071,191.764496 336.491974,191.465363 
	C336.725769,191.611740 336.959564,191.758102 337.193329,191.904480 
	C336.876831,192.102692 336.560333,192.300903 336.123535,192.430939 
z"/>
<path fill="#626262" opacity="1.000000" stroke="none" 
	d="
M227.510406,523.318115 
	C227.092728,525.020752 226.960922,526.413269 226.373062,527.575134 
	C225.619370,529.064697 224.498840,530.368713 223.536407,531.752747 
	C222.284790,530.522827 220.461975,529.517395 219.875946,528.025940 
	C216.543472,519.544312 213.449814,510.966766 210.379333,502.384491 
	C201.209000,476.752563 196.829681,450.302032 197.177856,423.093323 
	C197.311752,412.629730 197.025757,402.078857 198.282211,391.731812 
	C199.941650,378.066010 202.869873,364.550262 205.432037,351.003906 
	C205.710602,349.531006 207.204865,348.302399 208.078613,346.924561 
	C209.682205,344.395782 210.955734,341.587891 212.903061,339.366333 
	C214.872955,337.119049 217.492493,335.441193 219.846542,333.498169 
	C220.966843,334.911591 221.483002,335.261932 221.534531,335.670776 
	C224.854523,362.017334 228.408615,388.318817 228.082153,414.998047 
	C227.727493,443.981232 228.026993,472.972107 227.982529,501.959564 
	C227.971817,508.941711 227.729416,515.923523 227.510406,523.318115 
z"/>
</svg>